<svg xmlns="http://www.w3.org/2000/svg" viewBox="0 0 64 64" id="agile"><path fill="#81d4fa" d="M57 56H4a2 2 0 0 1-2-2v-8a2 2 0 0 1 2-2h53l5 6Z"></path><path d="M55 44h-4l5 6-5 6h4l5-6-5-6z" opacity=".1"></path><circle cx="21" cy="34.5" r="15.5" fill="#fff"></circle><path d="M21.63 19a15.45 15.45 0 0 0-2.75.26 15.48 15.48 0 0 1 0 30.48A15.49 15.49 0 1 0 21.63 19Z" opacity=".1"></path><path fill="#4d4d4d" d="M23 35a2 2 0 0 0-2-2h-3a2 2 0 0 0 0 4h3a2 2 0 0 0 2-2Z"></path><circle cx="29" cy="35" r="2" fill="#81d4fa"></circle><path fill="#4d4d4d" d="m.8 33.6 4 3a2.05 2.05 0 0 0 2.2.11l5-3a2 2 0 0 0-2-3.43l-1.41.85A13.43 13.43 0 1 1 21.54 48a2 2 0 1 0 0 4 17.44 17.44 0 0 0 11.23-30.78 6.57 6.57 0 1 1 10.62-1.92l-.6-1.2a2 2 0 0 0-3.58 1.79l2 4A2 2 0 0 0 43.33 25l6-1a2 2 0 0 0-.66-4l-1.35.22A10.57 10.57 0 1 0 27 18a17.27 17.27 0 0 0-5.41-.87A17.46 17.46 0 0 0 4.42 31.31L3.2 30.4a2 2 0 0 0-2.4 3.2Z"></path><path fill="#4d4d4d" d="m63.54 48.72-5-6A2 2 0 0 0 57 42H43a2 2 0 1 0 0 4h13.06l3.34 4-3.34 4H4v-8h12.25a2 2 0 0 0 0-4H4a4 4 0 0 0-4 4v8a4 4 0 0 0 4 4h53a2 2 0 0 0 1.54-.72l5-6a2 2 0 0 0 0-2.56Z"></path></svg>