<?xml version="1.0" encoding="utf-8"?>
<!-- Uploaded to: SVG Repo, www.svgrepo.com, Generator: SVG Repo Mixer Tools -->
<svg xmlns="http://www.w3.org/2000/svg" xmlns:xlink="http://www.w3.org/1999/xlink" version="1.1" id="Layer_1"  viewBox="0 0 100 100" enable-background="new 0 0 100 100" xml:space="preserve" width="512" height="512">
<g>
	<circle fill="#45B39C" cx="49.9631157" cy="50.1382027" r="44.0737686"/>
	<path opacity="0.1" d="M94.0368805,50.1382027c0-2.3793411-0.1944733-4.7127686-0.5574417-6.9900055L75.2179489,24.8866882   H36.442215v20.2923889c-1.0559349,0.1284599-1.9925003,0.6151962-2.6995201,1.331398   c-0.8539276,0.8538361-1.3864861,2.0384102-1.3864861,3.3422585v2.8004303c0,0.6061058,0.2020035,1.1937561,0.5876503,1.6712227   c0.2938232,0.3672791,0.6060143,0.9549294,0.6519241,1.7996788v0.8631096c0,0,0.0826378,3.6086311,2.4699669,5.1970329   c0.018364,0.0092735,0.0367279,0.0184555,0.0550919,0.0275459v1.8273163l-2.0384102,0.7344742l-6.6386127,2.3965073   c-1.065115,0.3855515-1.8364067,1.3129425-2.0292282,2.4332428l-0.679472,4.141098   c-0.0734558,0.4131927,0.0459118,0.8080139,0.2846432,1.1018448l18.9491367,18.9491501   c1.9611931,0.2668304,3.9597549,0.4165878,5.9942169,0.4165878C74.3044128,94.2119751,94.0368805,74.4793167,94.0368805,50.1382027   z M39.9076843,75.3780594L39.9021759,75.38311l-0.0019264-0.0019302l0.0036736-0.0067062l0.0038567,0.0035858H39.9076843z    M39.919529,66.5629349l-0.0017433,0.0012894l0.0017433-0.002388V66.5629349z"/>
	
		<rect x="40.4667816" y="20.8601837" transform="matrix(-1.836970e-16 1 -1 -1.836970e-16 96.0738983 -15.5791721)" fill="#DC8744" width="30.7195091" height="38.7743568"/>
	<rect x="38.2758675" y="26.7242889" fill="#EBF0F3" width="35.1009789" height="27.046236"/>
	<g>
		<rect x="42.7693596" y="48.6650391" fill="#F6C358" width="4.0013471" height="1.5988678"/>
		<rect x="42.7693596" y="35.8740044" fill="#FCD462" width="4.0013471" height="12.7910337"/>
		<rect x="50.1402359" y="48.6650391" fill="#3EA69B" width="4.0013471" height="1.5988678"/>
		<rect x="50.1402359" y="30.2309093" fill="#44C4A1" width="4.0013471" height="18.4341297"/>
		<rect x="57.511116" y="48.6650391" fill="#D15241" width="4.0013471" height="1.5988678"/>
		<rect x="57.511116" y="38.6955528" fill="#E56353" width="4.0013471" height="9.9694862"/>
		<rect x="64.8819962" y="48.6650391" fill="#2D93BA" width="4.0013471" height="1.5988678"/>
		<rect x="64.8819962" y="33.804924" fill="#27A2DB" width="4.0013471" height="14.8601141"/>
	</g>
	<polygon fill="none" points="38.6854668,68.2359009 38.6853867,68.2359009 38.619812,68.3252411 38.63377,68.3062363  "/>
	<polygon fill="none" points="37.1418839,70.3382187 38.6196289,68.3255234 38.6196289,68.3254318 37.1416893,70.3383179    38.673069,73.1225815 38.673069,73.1224899  "/>
	<polygon fill="none" points="42.6735001,70.3382187 41.151577,73.1055984 41.15168,73.1058731 42.6738663,70.3383179    41.2019844,68.3336945 41.2018929,68.3338776  "/>
	<path fill="#F6C358" d="M39.8978615,67.5643158l0.0099182,0.0066071l0.0000916-0.0000916v-0.0089951l0.004406,0.0060577   l0.0054169-0.0035782l0.0000916-0.0000916l0.0017433-0.002388v0.0011902l3.7779503-2.5245056l0.0002747,0.0000916v-3.9014168   c-0.2857437,0.1968613-0.5599976,0.409977-0.8174744,0.6427422c-1.6577263,1.4986-3.2835884,1.2418709-3.2835884,1.2418709   c-0.9917526,0.0260773-2.4044075-0.9899139-3.0067482-1.4629745c-0.1532364-0.1203766-0.3106308-0.2355194-0.4721413-0.3446007   v3.824379l0.0002861-0.0000916L39.8978615,67.5643158z"/>
	<polygon fill="#F6C358" points="39.9076843,66.5711975 39.9078712,66.5713806 39.9078712,66.571106 39.9077797,66.5710144    38.6853867,68.2359009 38.6854668,68.2359009  "/>
	<path fill="#64798A" d="M35.8918304,50.1203003h2.3517952c0.2143097,0,0.4273338-0.0324135,0.6314468-0.0978813   c0.4260483-0.1366272,1.1032219-0.388401,1.6161308-0.5833359c0.4572678-0.1737251,0.9608994-0.1798744,1.4224815-0.0179024   l2.4753838,0.8690796c1.6654396,0.6117973,1.8353996,2.1753159,1.8353996,2.1753159v4.4184837   c0,0,0.2185326-1.4749069,0.9738464-2.6862946c0.1834564-0.2941933,0.2838173-0.6324577,0.2838173-0.9791718v-3.8121071   c0,0-0.237999-1.8693695-2.0733986-2.3112106c0,0,0.7477875-1.59198-1.189621-1.9686279h-7.1376572l0,0   c-2.6092567,0-4.7244339,2.1151733-4.7244339,4.7244339v2.8007965c0,0.606842,0.2031097,1.1973381,0.5831642,1.6704865   c0.298954,0.3723335,0.6094933,0.9576874,0.6574326,1.8046379v-3.7124786   C34.0564346,50.3582039,35.8918304,50.1203003,35.8918304,50.1203003z"/>
	<path fill="#FCD462" d="M39.5966911,64.0218048c0,0,1.6258621,0.2567368,3.2835884-1.2418671   c0.2574768-0.2327652,0.5317307-0.4458809,0.8174744-0.6427422c0.0281906-0.0194664,0.0558281-0.0395737,0.0842018-0.0586739   c0.7339172-0.492981,2.1439133-1.8598213,2.4425125-5.1944618v-4.4184837c0,0-0.16996-1.5635185-1.8353996-2.1753159   l-2.4753838-0.8690796c-0.4615822-0.161972-0.9652138-0.1558228-1.4224815,0.0179024   c-0.5129089,0.1949348-1.1900826,0.4467087-1.6161308,0.5833359c-0.204113,0.0654678-0.4171371,0.0978813-0.6314468,0.0978813   h-2.3517952c0,0-1.8353958,0.2379036-2.2942123,2.2942238v3.7124786v0.8590698c0,0,0.0798874,3.6112061,2.4707832,5.193821   c0.0167122,0.0111084,0.0327797,0.0231361,0.0494003,0.0343399c0.1615105,0.1090813,0.3189049,0.2242241,0.4721413,0.3446007   C37.1922836,63.0318947,38.6049385,64.0478821,39.5966911,64.0218048z"/>
	<polygon fill="#D5D6DB" points="41.2018929,68.3338776 40.5443687,69.2780609 41.151577,73.1055984 42.6735001,70.3382187  "/>
	<polygon fill="#D5D6DB" points="38.673069,73.1224899 39.2830315,69.2780609 38.6196289,68.3255234 37.1418839,70.3382187  "/>
	<polygon fill="#D5D6DB" points="38.6854668,68.2359009 38.63377,68.3062363 39.9078712,66.5777206 39.9078712,66.5713806    39.9076843,66.5711975  "/>
	<polygon fill="#E56353" points="41.151577,73.1055984 40.5443687,69.2780609 41.2018929,68.3338776 41.2019844,68.3336945    39.9078712,66.571106 39.9078712,66.5713806 39.9078712,66.5777206 38.63377,68.3062363 38.619812,68.3252411    38.6196289,68.3254318 38.6196289,68.3255234 39.2830315,69.2780609 38.673069,73.1224899 38.673069,73.1225815    39.9077797,75.3674088 41.15168,73.1058731  "/>
	<polygon fill="#E56353" points="39.9153061,75.3811798 40.0333099,75.2632828 39.9116325,75.3744736  "/>
	<polygon fill="#E56353" points="39.903923,75.3744736 39.7822609,75.2632828 39.9002495,75.3811798  "/>
	<polygon fill="#E56353" points="39.9021759,75.38311 39.9077797,75.38871 39.9133797,75.38311 39.9078712,75.3780594    39.9077797,75.3780594 39.9076843,75.3780594  "/>
	<polygon fill="#E56353" points="39.919529,66.5618362 39.9177856,66.5642242 39.919529,66.5630264  "/>
	<polygon fill="#E56353" points="39.9078712,66.5618362 39.9078712,66.5708313 39.9122772,66.567894  "/>
	<polygon fill="#E1E6E9" points="39.919529,66.5630264 39.9177856,66.5642242 39.9176941,66.5643158 39.9122772,66.567894    39.9078712,66.5708313 39.9077797,66.5709229 39.9078712,66.5709229 39.9077797,66.5710144 39.9078712,66.571106    41.2019844,68.3336945 42.6738663,70.3383179 45.7368088,64.7695923 43.6977539,64.0386124 43.6974792,64.0385208  "/>
	<polygon fill="#E1E6E9" points="38.6196289,68.3254318 38.619812,68.3252411 38.6853867,68.2359009 39.9077797,66.5710144    39.9078712,66.5709229 39.9077797,66.5709229 39.8978615,66.5643158 36.1180878,64.0385208 36.1178017,64.0386124    34.0787582,64.7695923 37.1416893,70.3383179  "/>
	<path fill="#3A556A" d="M39.9153061,75.3811798l0.0042229,0.0076218h1.5943718H53.691021   c0.8717422,0,1.5351448-0.7823105,1.3927307-1.6422958l-0.6860657-4.142662   c-0.1850319-1.1174545-0.9589844-2.0478668-2.0241013-2.4331512l-6.636776-2.4011002"/>
	<polygon fill="#3A556A" points="39.9133797,75.38311 39.9077797,75.38871 39.9078712,75.3888016 39.919529,75.3888016  "/>
	<polygon fill="#2F4859" points="41.15168,73.1058731 39.9077797,75.3674088 39.9078712,75.3675003 39.9116325,75.3744736    40.0333099,75.2632828 46.0427551,69.7659073 45.2949715,68.3383789 47.499485,68.3044052 45.7368088,64.7695923    42.6738663,70.3383179  "/>
	<polygon fill="#2F4859" points="39.9021759,75.38311 39.9076843,75.3780594 39.9077797,75.3780594 39.903923,75.3744736    39.9002495,75.3811798  "/>
	<path fill="#3A556A" d="M34.0787582,64.7695923l-6.6367741,2.4011002   c-1.0651169,0.3852844-1.8390827,1.3156967-2.0241928,2.4331512l-0.6859894,4.142662   c-0.1424122,0.8599854,0.5209885,1.6422958,1.3927307,1.6422958h12.188982h0.9409599h0.0117531h0.6414566h0.0001869   L39.9077797,75.38871l-0.0056038-0.0056l-0.0019264-0.0019302"/>
	<polygon fill="#2F4859" points="39.9153061,75.3811798 39.9116325,75.3744736 39.9078712,75.3675003 39.9077797,75.3674088    38.673069,73.1225815 37.1416893,70.3383179 34.0787582,64.7695923 32.3160706,68.3044052 34.5205879,68.3383789    33.7728004,69.7659073 39.7822609,75.2632828 39.903923,75.3744736 39.9077797,75.3780594 39.9078712,75.3780594    39.9133797,75.38311 39.919529,75.3888016  "/>
</g>
</svg>