<?xml version="1.0" ?><!-- Uploaded to: SVG Repo, www.svgrepo.com, Generator: SVG Repo Mixer Tools -->
<svg width="800px" height="800px" viewBox="0 0 50 50" data-name="Layer 1" id="Layer_1" xmlns="http://www.w3.org/2000/svg"><defs><style>.cls-1{fill:#231f20;}.cls-2{fill:#ffffff;}.cls-3{fill:#d12200;}.cls-4{fill:#00a1d3;}.cls-5{fill:#7cc05b;}.cls-6{fill:#ffba50;}.cls-7{fill:#ff8e5a;}</style></defs><title/><path class="cls-1" d="M6.919,4.5H43.081A2.419,2.419,0,0,1,45.5,6.919v15.55a2.42,2.42,0,0,1-2.42,2.42H6.919A2.419,2.419,0,0,1,4.5,22.47V6.919A2.419,2.419,0,0,1,6.919,4.5Z"/><path class="cls-2" d="M6.92,5.5H43.081A1.419,1.419,0,0,1,44.5,6.919V22.47a1.419,1.419,0,0,1-1.419,1.419H6.919A1.419,1.419,0,0,1,5.5,22.47V6.92A1.42,1.42,0,0,1,6.92,5.5Z"/><path class="cls-1" d="M39.1,20.08H37.825V9.8a.5.5,0,1,0-1,0V20.08h-2.4V11.866a.5.5,0,0,0-1,0V20.08h-2.4V14.2a.5.5,0,1,0-1,0V20.08h-2.4V16.605a.5.5,0,0,0-1,0V20.08H25.344a.5.5,0,0,0,0,1H39.1a.5.5,0,0,0,0-1Z"/><path class="cls-1" d="M16.745,8.309a6.347,6.347,0,1,0,6.348,6.347A6.354,6.354,0,0,0,16.745,8.309Z"/><path class="cls-3" d="M22.042,14.156h-4.8v-4.8A5.321,5.321,0,0,1,22.042,14.156Z"/><path class="cls-4" d="M16.245,9.359v4.333L12.7,11.2A5.305,5.305,0,0,1,16.245,9.359Z"/><path class="cls-5" d="M16.745,20A5.354,5.354,0,0,1,11.4,14.656a5.288,5.288,0,0,1,.727-2.642l4.332,3.051a.516.516,0,0,0,.288.091h5.3A5.336,5.336,0,0,1,16.745,20Z"/><path class="cls-1" d="M44.066,40.691h-4.1V38.858a4.631,4.631,0,0,0-9.261,0v1.833H19.293V38.858a4.631,4.631,0,0,0-9.261,0v1.833h-4.1A1.436,1.436,0,0,0,4.5,42.124v1.942A1.437,1.437,0,0,0,5.934,45.5H44.066A1.437,1.437,0,0,0,45.5,44.066V42.124A1.436,1.436,0,0,0,44.066,40.691Z"/><path class="cls-6" d="M31.707,38.858a3.631,3.631,0,0,1,7.261,0v1.833H31.707Z"/><path class="cls-4" d="M11.032,38.858a3.631,3.631,0,0,1,7.261,0v1.833H11.032Z"/><path class="cls-7" d="M5.934,41.691H44.066a.434.434,0,0,1,.434.434v1.942a.433.433,0,0,1-.433.433H5.934a.434.434,0,0,1-.434-.434V42.125A.434.434,0,0,1,5.934,41.691Z"/><circle class="cls-1" cx="14.662" cy="30.089" r="3.304"/><circle class="cls-4" cx="14.662" cy="30.089" r="2.304"/><circle class="cls-1" cx="35.338" cy="30.089" r="3.304"/><circle class="cls-6" cx="35.338" cy="30.089" r="2.304"/></svg>