<?xml version="1.0" encoding="iso-8859-1"?>
<!-- Uploaded to: SVG Repo, www.svgrepo.com, Generator: SVG Repo Mixer Tools -->
<svg height="800px" width="800px" version="1.1" id="Layer_1" xmlns="http://www.w3.org/2000/svg" xmlns:xlink="http://www.w3.org/1999/xlink" 
	 viewBox="0 0 501.551 501.551" xml:space="preserve">
<path style="fill:#F2F2F2;" d="M85.682,120.294c-4.18,0-8.359,4.18-8.359,8.359v49.11c0,6.269-5.224,10.449-10.449,10.449
	s-10.449-5.224-10.449-10.449v-49.11c-1.045-5.224-4.18-8.359-9.404-8.359h-1.045c-4.18,0-8.359,4.18-8.359,8.359v49.11
	c0,6.269-5.224,10.449-10.449,10.449s-10.449-5.224-10.449-10.449v-49.11c0-4.18-4.18-8.359-8.359-8.359S0,124.473,0,128.653v50.155
	c0,19.853,12.539,38.661,30.302,45.976c-6.269,32.392-25.078,143.151,2.09,169.273c5.224,5.224,24.033,5.224,29.257,0
	c27.167-26.122,8.359-136.882,2.09-169.273c17.763-6.269,30.302-24.033,30.302-43.886v-52.245
	C94.041,123.429,89.861,120.294,85.682,120.294z"/>
<path style="fill:#84DBFF;" d="M21.943,280.163c-5.224,43.886-7.314,96.131,10.449,113.894c5.224,5.225,24.033,5.225,29.257,0
	c17.763-17.763,15.673-70.008,10.449-113.894L21.943,280.163L21.943,280.163z"/>
<path style="fill:#F2F2F2;" d="M454.531,103.575c-26.122,0-47.02,37.616-47.02,62.694v9.404c0,19.853,12.539,37.616,31.347,43.886
	c-5.224,27.167-27.167,146.286,1.045,174.498c5.224,5.224,24.033,5.224,29.257,0c28.212-28.212,6.269-147.331,1.045-174.498
	c17.763-6.269,31.347-24.033,31.347-43.886v-9.404C501.551,141.192,480.653,103.575,454.531,103.575z"/>
<path style="fill:#84DBFF;" d="M429.453,280.163c-5.224,43.886-7.314,96.131,10.449,113.894c5.224,5.225,24.033,5.225,29.257,0
	c17.763-17.763,15.673-70.008,10.449-113.894L429.453,280.163L429.453,280.163z"/>
<circle style="fill:#F2F2F2;" cx="250.776" cy="250.906" r="146.286"/>
<circle style="fill:#E2E2E2;" cx="250.776" cy="250.906" r="109.714"/>
<g>
	<ellipse style="fill:#FFFFFF;" cx="454.531" cy="368.98" rx="9.404" ry="16.718"/>
	<ellipse style="fill:#FFFFFF;" cx="47.02" cy="368.98" rx="9.404" ry="16.718"/>
</g>
</svg>