<svg id="visual" viewBox="0 0 900 450" width="900" height="450" xmlns="http://www.w3.org/2000/svg" xmlns:xlink="http://www.w3.org/1999/xlink" version="1.1"><rect x="0" y="0" width="900" height="450" fill="#001220"></rect><defs><linearGradient id="grad1_0" x1="50%" y1="0%" x2="100%" y2="100%"><stop offset="10%" stop-color="#fbae3c" stop-opacity="1"></stop><stop offset="90%" stop-color="#fbae3c" stop-opacity="1"></stop></linearGradient></defs><defs><linearGradient id="grad1_1" x1="50%" y1="0%" x2="100%" y2="100%"><stop offset="10%" stop-color="#fbae3c" stop-opacity="1"></stop><stop offset="90%" stop-color="#cc5867" stop-opacity="1"></stop></linearGradient></defs><defs><linearGradient id="grad1_2" x1="50%" y1="0%" x2="100%" y2="100%"><stop offset="10%" stop-color="#593762" stop-opacity="1"></stop><stop offset="90%" stop-color="#cc5867" stop-opacity="1"></stop></linearGradient></defs><defs><linearGradient id="grad1_3" x1="50%" y1="0%" x2="100%" y2="100%"><stop offset="10%" stop-color="#593762" stop-opacity="1"></stop><stop offset="90%" stop-color="#001220" stop-opacity="1"></stop></linearGradient></defs><defs><linearGradient id="grad2_0" x1="0%" y1="0%" x2="50%" y2="100%"><stop offset="10%" stop-color="#fbae3c" stop-opacity="1"></stop><stop offset="90%" stop-color="#fbae3c" stop-opacity="1"></stop></linearGradient></defs><defs><linearGradient id="grad2_1" x1="0%" y1="0%" x2="50%" y2="100%"><stop offset="10%" stop-color="#cc5867" stop-opacity="1"></stop><stop offset="90%" stop-color="#fbae3c" stop-opacity="1"></stop></linearGradient></defs><defs><linearGradient id="grad2_2" x1="0%" y1="0%" x2="50%" y2="100%"><stop offset="10%" stop-color="#cc5867" stop-opacity="1"></stop><stop offset="90%" stop-color="#593762" stop-opacity="1"></stop></linearGradient></defs><defs><linearGradient id="grad2_3" x1="0%" y1="0%" x2="50%" y2="100%"><stop offset="10%" stop-color="#001220" stop-opacity="1"></stop><stop offset="90%" stop-color="#593762" stop-opacity="1"></stop></linearGradient></defs><g transform="translate(900, 0)"><path d="M0 450C-16.1 427.4 -32.2 404.9 -47.7 393.1C-63.2 381.4 -78.1 380.5 -92.9 376.7C-107.6 373 -122.1 366.4 -137.9 363.7C-153.7 361 -170.8 362.2 -190.5 363C-210.3 363.9 -232.8 364.4 -242.6 351.4C-252.3 338.4 -249.3 311.9 -273.2 308.4C-297.1 304.9 -347.9 324.3 -334.6 296.4C-321.3 268.5 -244 193.3 -259.2 178.9C-274.5 164.6 -382.3 211.2 -390.5 204.9C-398.6 198.7 -307.1 139.5 -313.2 118.8C-319.4 98 -423.2 115.7 -436.9 107.7C-450.6 99.7 -374.2 66.1 -361.3 43.9C-348.5 21.7 -399.3 10.8 -450 0L0 0Z" fill="#232745"></path><path d="M0 337.5C-12.1 320.6 -24.2 303.6 -35.8 294.8C-47.4 286 -58.6 285.3 -69.6 282.5C-80.7 279.7 -91.6 274.8 -103.5 272.8C-115.3 270.8 -128.1 271.6 -142.9 272.3C-157.7 272.9 -174.6 273.3 -181.9 263.6C-189.2 253.8 -187 233.9 -204.9 231.3C-222.8 228.6 -260.9 243.2 -250.9 222.3C-241 201.4 -183 145 -194.4 134.2C-205.9 123.5 -286.8 158.4 -292.9 153.7C-299 149 -230.3 104.7 -234.9 89.1C-239.5 73.5 -317.4 86.8 -327.7 80.8C-338 74.8 -280.6 49.6 -271 32.9C-261.4 16.2 -299.4 8.1 -337.5 0L0 0Z" fill="#96446e"></path><path d="M0 225C-8.1 213.7 -16.1 202.4 -23.9 196.6C-31.6 190.7 -39.1 190.2 -46.4 188.4C-53.8 186.5 -61.1 183.2 -69 181.9C-76.9 180.5 -85.4 181.1 -95.3 181.5C-105.2 181.9 -116.4 182.2 -121.3 175.7C-126.2 169.2 -124.7 156 -136.6 154.2C-148.5 152.4 -173.9 162.2 -167.3 148.2C-160.7 134.3 -122 96.6 -129.6 89.5C-137.2 82.3 -191.2 105.6 -195.2 102.5C-199.3 99.3 -153.5 69.8 -156.6 59.4C-159.7 49 -211.6 57.8 -218.5 53.8C-225.3 49.9 -187.1 33 -180.7 21.9C-174.3 10.8 -199.6 5.4 -225 0L0 0Z" fill="#f17c53"></path><path d="M0 112.5C-4 106.9 -8.1 101.2 -11.9 98.3C-15.8 95.3 -19.5 95.1 -23.2 94.2C-26.9 93.2 -30.5 91.6 -34.5 90.9C-38.4 90.3 -42.7 90.5 -47.6 90.8C-52.6 91 -58.2 91.1 -60.6 87.9C-63.1 84.6 -62.3 78 -68.3 77.1C-74.3 76.2 -87 81.1 -83.6 74.1C-80.3 67.1 -61 48.3 -64.8 44.7C-68.6 41.2 -95.6 52.8 -97.6 51.2C-99.7 49.7 -76.8 34.9 -78.3 29.7C-79.8 24.5 -105.8 28.9 -109.2 26.9C-112.7 24.9 -93.5 16.5 -90.3 11C-87.1 5.4 -99.8 2.7 -112.5 0L0 0Z" fill="#fbae3c"></path></g><g transform="translate(0, 450)"><path d="M0 -450C11.9 -395.3 23.8 -340.5 40.7 -335.5C57.7 -330.6 79.7 -375.4 92.9 -376.7C106 -378.1 110.3 -336 120.6 -317.9C130.9 -299.8 147.2 -305.6 155.7 -296.6C164.2 -287.6 164.8 -263.8 182.3 -264.2C199.9 -264.6 234.5 -289.3 267.9 -302.4C301.3 -315.5 333.5 -317.2 336.8 -298.4C340.2 -279.6 314.6 -240.5 327.5 -226.1C340.5 -211.7 392 -222.1 392.3 -205.9C392.5 -189.6 341.4 -146.6 319.8 -121.3C298.1 -95.9 305.8 -88.2 321.4 -79.2C337 -70.2 360.4 -59.9 383.2 -46.5C405.9 -33.1 428 -16.6 450 0L0 0Z" fill="#232745"></path><path d="M0 -337.5C8.9 -296.4 17.8 -255.4 30.6 -251.7C43.3 -247.9 59.8 -281.5 69.6 -282.5C79.5 -283.6 82.7 -252 90.4 -238.4C98.2 -224.8 110.4 -229.2 116.8 -222.5C123.1 -215.7 123.6 -197.8 136.8 -198.1C150 -198.4 175.9 -216.9 200.9 -226.8C226 -236.7 250.1 -237.9 252.6 -223.8C255.1 -209.7 235.9 -180.3 245.7 -169.6C255.4 -158.8 294 -166.6 294.2 -154.4C294.4 -142.2 256.1 -110 239.8 -91C223.6 -71.9 229.3 -66.2 241 -59.4C252.7 -52.7 270.3 -45 287.4 -34.9C304.5 -24.8 321 -12.4 337.5 0L0 0Z" fill="#96446e"></path><path d="M0 -225C5.9 -197.6 11.9 -170.3 20.4 -167.8C28.8 -165.3 39.9 -187.7 46.4 -188.4C53 -189 55.1 -168 60.3 -159C65.4 -149.9 73.6 -152.8 77.8 -148.3C82.1 -143.8 82.4 -131.9 91.2 -132.1C100 -132.3 117.3 -144.6 134 -151.2C150.6 -157.8 166.8 -158.6 168.4 -149.2C170.1 -139.8 157.3 -120.2 163.8 -113C170.3 -105.9 196 -111.1 196.1 -102.9C196.2 -94.8 170.7 -73.3 159.9 -60.6C149.1 -48 152.9 -44.1 160.7 -39.6C168.5 -35.1 180.2 -30 191.6 -23.3C203 -16.6 214 -8.3 225 0L0 0Z" fill="#f17c53"></path><path d="M0 -112.5C3 -98.8 5.9 -85.1 10.2 -83.9C14.4 -82.6 19.9 -93.8 23.2 -94.2C26.5 -94.5 27.6 -84 30.1 -79.5C32.7 -74.9 36.8 -76.4 38.9 -74.2C41 -71.9 41.2 -65.9 45.6 -66C50 -66.1 58.6 -72.3 67 -75.6C75.3 -78.9 83.4 -79.3 84.2 -74.6C85 -69.9 78.6 -60.1 81.9 -56.5C85.1 -52.9 98 -55.5 98.1 -51.5C98.1 -47.4 85.4 -36.7 79.9 -30.3C74.5 -24 76.4 -22.1 80.3 -19.8C84.2 -17.6 90.1 -15 95.8 -11.6C101.5 -8.3 107 -4.1 112.5 0L0 0Z" fill="#fbae3c"></path></g></svg>