<svg id="visual" viewBox="0 0 900 450" width="900" height="450" xmlns="http://www.w3.org/2000/svg" xmlns:xlink="http://www.w3.org/1999/xlink" version="1.1"><rect x="0" y="0" width="900" height="450" fill="#001220"></rect><defs><linearGradient id="grad1_0" x1="50%" y1="100%" x2="100%" y2="0%"><stop offset="10%" stop-color="#fbae3c" stop-opacity="1"></stop><stop offset="90%" stop-color="#fbae3c" stop-opacity="1"></stop></linearGradient></defs><defs><linearGradient id="grad1_1" x1="50%" y1="100%" x2="100%" y2="0%"><stop offset="10%" stop-color="#fbae3c" stop-opacity="1"></stop><stop offset="90%" stop-color="#cc5867" stop-opacity="1"></stop></linearGradient></defs><defs><linearGradient id="grad1_2" x1="50%" y1="100%" x2="100%" y2="0%"><stop offset="10%" stop-color="#593762" stop-opacity="1"></stop><stop offset="90%" stop-color="#cc5867" stop-opacity="1"></stop></linearGradient></defs><defs><linearGradient id="grad1_3" x1="50%" y1="100%" x2="100%" y2="0%"><stop offset="10%" stop-color="#593762" stop-opacity="1"></stop><stop offset="90%" stop-color="#001220" stop-opacity="1"></stop></linearGradient></defs><defs><linearGradient id="grad2_0" x1="0%" y1="100%" x2="50%" y2="0%"><stop offset="10%" stop-color="#fbae3c" stop-opacity="1"></stop><stop offset="90%" stop-color="#fbae3c" stop-opacity="1"></stop></linearGradient></defs><defs><linearGradient id="grad2_1" x1="0%" y1="100%" x2="50%" y2="0%"><stop offset="10%" stop-color="#cc5867" stop-opacity="1"></stop><stop offset="90%" stop-color="#fbae3c" stop-opacity="1"></stop></linearGradient></defs><defs><linearGradient id="grad2_2" x1="0%" y1="100%" x2="50%" y2="0%"><stop offset="10%" stop-color="#cc5867" stop-opacity="1"></stop><stop offset="90%" stop-color="#593762" stop-opacity="1"></stop></linearGradient></defs><defs><linearGradient id="grad2_3" x1="0%" y1="100%" x2="50%" y2="0%"><stop offset="10%" stop-color="#001220" stop-opacity="1"></stop><stop offset="90%" stop-color="#593762" stop-opacity="1"></stop></linearGradient></defs><g transform="translate(900, 450)"><path d="M-450 0C-427.4 -16.1 -404.9 -32.2 -393.1 -47.7C-381.4 -63.2 -380.5 -78.1 -376.7 -92.9C-373 -107.6 -366.4 -122.1 -363.7 -137.9C-361 -153.7 -362.2 -170.8 -363 -190.5C-363.9 -210.3 -364.4 -232.8 -351.4 -242.6C-338.4 -252.3 -311.9 -249.3 -308.4 -273.2C-304.9 -297.1 -324.3 -347.9 -296.4 -334.6C-268.5 -321.3 -193.3 -244 -178.9 -259.2C-164.6 -274.5 -211.2 -382.3 -204.9 -390.5C-198.7 -398.6 -139.5 -307.1 -118.8 -313.2C-98 -319.4 -115.7 -423.2 -107.7 -436.9C-99.7 -450.6 -66.1 -374.2 -43.9 -361.3C-21.7 -348.5 -10.8 -399.3 0 -450L0 0Z" fill="#232745"></path><path d="M-337.5 0C-320.6 -12.1 -303.6 -24.2 -294.8 -35.8C-286 -47.4 -285.3 -58.6 -282.5 -69.6C-279.7 -80.7 -274.8 -91.6 -272.8 -103.5C-270.8 -115.3 -271.6 -128.1 -272.3 -142.9C-272.9 -157.7 -273.3 -174.6 -263.6 -181.9C-253.8 -189.2 -233.9 -187 -231.3 -204.9C-228.6 -222.8 -243.2 -260.9 -222.3 -250.9C-201.4 -241 -145 -183 -134.2 -194.4C-123.5 -205.9 -158.4 -286.8 -153.7 -292.9C-149 -299 -104.7 -230.3 -89.1 -234.9C-73.5 -239.5 -86.8 -317.4 -80.8 -327.7C-74.8 -338 -49.6 -280.6 -32.9 -271C-16.2 -261.4 -8.1 -299.4 0 -337.5L0 0Z" fill="#96446e"></path><path d="M-225 0C-213.7 -8.1 -202.4 -16.1 -196.6 -23.9C-190.7 -31.6 -190.2 -39.1 -188.4 -46.4C-186.5 -53.8 -183.2 -61.1 -181.9 -69C-180.5 -76.9 -181.1 -85.4 -181.5 -95.3C-181.9 -105.2 -182.2 -116.4 -175.7 -121.3C-169.2 -126.2 -156 -124.7 -154.2 -136.6C-152.4 -148.5 -162.2 -173.9 -148.2 -167.3C-134.3 -160.7 -96.6 -122 -89.5 -129.6C-82.3 -137.2 -105.6 -191.2 -102.5 -195.2C-99.3 -199.3 -69.8 -153.5 -59.4 -156.6C-49 -159.7 -57.8 -211.6 -53.8 -218.5C-49.9 -225.3 -33 -187.1 -21.9 -180.7C-10.8 -174.3 -5.4 -199.6 0 -225L0 0Z" fill="#f17c53"></path><path d="M-112.5 0C-106.9 -4 -101.2 -8.1 -98.3 -11.9C-95.3 -15.8 -95.1 -19.5 -94.2 -23.2C-93.2 -26.9 -91.6 -30.5 -90.9 -34.5C-90.3 -38.4 -90.5 -42.7 -90.8 -47.6C-91 -52.6 -91.1 -58.2 -87.9 -60.6C-84.6 -63.1 -78 -62.3 -77.1 -68.3C-76.2 -74.3 -81.1 -87 -74.1 -83.6C-67.1 -80.3 -48.3 -61 -44.7 -64.8C-41.2 -68.6 -52.8 -95.6 -51.2 -97.6C-49.7 -99.7 -34.9 -76.8 -29.7 -78.3C-24.5 -79.8 -28.9 -105.8 -26.9 -109.2C-24.9 -112.7 -16.5 -93.5 -11 -90.3C-5.4 -87.1 -2.7 -99.8 0 -112.5L0 0Z" fill="#fbae3c"></path></g><g transform="translate(0, 0)"><path d="M450 0C395.3 11.9 340.5 23.8 335.5 40.7C330.6 57.7 375.4 79.7 376.7 92.9C378.1 106 336 110.3 317.9 120.6C299.8 130.9 305.6 147.2 296.6 155.7C287.6 164.2 263.8 164.8 264.2 182.3C264.6 199.9 289.3 234.5 302.4 267.9C315.5 301.3 317.2 333.5 298.4 336.8C279.6 340.2 240.5 314.6 226.1 327.5C211.7 340.5 222.1 392 205.9 392.3C189.6 392.5 146.6 341.4 121.3 319.8C95.9 298.1 88.2 305.8 79.2 321.4C70.2 337 59.9 360.4 46.5 383.2C33.1 405.9 16.6 428 0 450L0 0Z" fill="#232745"></path><path d="M337.5 0C296.4 8.9 255.4 17.8 251.7 30.6C247.9 43.3 281.5 59.8 282.5 69.6C283.6 79.5 252 82.7 238.4 90.4C224.8 98.2 229.2 110.4 222.5 116.8C215.7 123.1 197.8 123.6 198.1 136.8C198.4 150 216.9 175.9 226.8 200.9C236.7 226 237.9 250.1 223.8 252.6C209.7 255.1 180.3 235.9 169.6 245.7C158.8 255.4 166.6 294 154.4 294.2C142.2 294.4 110 256.1 91 239.8C71.9 223.6 66.2 229.3 59.4 241C52.7 252.7 45 270.3 34.9 287.4C24.8 304.5 12.4 321 0 337.5L0 0Z" fill="#96446e"></path><path d="M225 0C197.6 5.9 170.3 11.9 167.8 20.4C165.3 28.8 187.7 39.9 188.4 46.4C189 53 168 55.1 159 60.3C149.9 65.4 152.8 73.6 148.3 77.8C143.8 82.1 131.9 82.4 132.1 91.2C132.3 100 144.6 117.3 151.2 134C157.8 150.6 158.6 166.8 149.2 168.4C139.8 170.1 120.2 157.3 113 163.8C105.9 170.3 111.1 196 102.9 196.1C94.8 196.2 73.3 170.7 60.6 159.9C48 149.1 44.1 152.9 39.6 160.7C35.1 168.5 30 180.2 23.3 191.6C16.6 203 8.3 214 0 225L0 0Z" fill="#f17c53"></path><path d="M112.5 0C98.8 3 85.1 5.9 83.9 10.2C82.6 14.4 93.8 19.9 94.2 23.2C94.5 26.5 84 27.6 79.5 30.1C74.9 32.7 76.4 36.8 74.2 38.9C71.9 41 65.9 41.2 66 45.6C66.1 50 72.3 58.6 75.6 67C78.9 75.3 79.3 83.4 74.6 84.2C69.9 85 60.1 78.6 56.5 81.9C52.9 85.1 55.5 98 51.5 98.1C47.4 98.1 36.7 85.4 30.3 79.9C24 74.5 22.1 76.4 19.8 80.3C17.6 84.2 15 90.1 11.6 95.8C8.3 101.5 4.1 107 0 112.5L0 0Z" fill="#fbae3c"></path></g></svg>