<svg id="visual" viewBox="0 0 900 200" width="900" height="200" xmlns="http://www.w3.org/2000/svg" xmlns:xlink="http://www.w3.org/1999/xlink" version="1.1"><rect x="0" y="0" width="900" height="200" fill="#ffffff"></rect><path d="M0 79L21.5 78C43 77 86 75 128.8 70.3C171.7 65.7 214.3 58.3 257.2 56C300 53.7 343 56.3 385.8 59.7C428.7 63 471.3 67 514.2 67C557 67 600 63 642.8 62C685.7 61 728.3 63 771.2 62.8C814 62.7 857 60.3 878.5 59.2L900 58L900 0L878.5 0C857 0 814 0 771.2 0C728.3 0 685.7 0 642.8 0C600 0 557 0 514.2 0C471.3 0 428.7 0 385.8 0C343 0 300 0 257.2 0C214.3 0 171.7 0 128.8 0C86 0 43 0 21.5 0L0 0Z" fill="#ffffff"></path><path d="M0 46L21.5 49.7C43 53.3 86 60.7 128.8 61C171.7 61.3 214.3 54.7 257.2 52.5C300 50.3 343 52.7 385.8 55C428.7 57.3 471.3 59.7 514.2 57.7C557 55.7 600 49.3 642.8 49.8C685.7 50.3 728.3 57.7 771.2 61.7C814 65.7 857 66.3 878.5 66.7L900 67L900 0L878.5 0C857 0 814 0 771.2 0C728.3 0 685.7 0 642.8 0C600 0 557 0 514.2 0C471.3 0 428.7 0 385.8 0C343 0 300 0 257.2 0C214.3 0 171.7 0 128.8 0C86 0 43 0 21.5 0L0 0Z" fill="#ccdde7"></path><path d="M0 33L21.5 34.7C43 36.3 86 39.7 128.8 40.2C171.7 40.7 214.3 38.3 257.2 36.3C300 34.3 343 32.7 385.8 34.3C428.7 36 471.3 41 514.2 41.8C557 42.7 600 39.3 642.8 38.8C685.7 38.3 728.3 40.7 771.2 41C814 41.3 857 39.7 878.5 38.8L900 38L900 0L878.5 0C857 0 814 0 771.2 0C728.3 0 685.7 0 642.8 0C600 0 557 0 514.2 0C471.3 0 428.7 0 385.8 0C343 0 300 0 257.2 0C214.3 0 171.7 0 128.8 0C86 0 43 0 21.5 0L0 0Z" fill="#99bbd0"></path><path d="M0 35L21.5 34.3C43 33.7 86 32.3 128.8 30.7C171.7 29 214.3 27 257.2 26.7C300 26.3 343 27.7 385.8 29.5C428.7 31.3 471.3 33.7 514.2 33.3C557 33 600 30 642.8 29.5C685.7 29 728.3 31 771.2 29.7C814 28.3 857 23.7 878.5 21.3L900 19L900 0L878.5 0C857 0 814 0 771.2 0C728.3 0 685.7 0 642.8 0C600 0 557 0 514.2 0C471.3 0 428.7 0 385.8 0C343 0 300 0 257.2 0C214.3 0 171.7 0 128.8 0C86 0 43 0 21.5 0L0 0Z" fill="#639bb9"></path><path d="M0 10L21.5 10.2C43 10.3 86 10.7 128.8 12.5C171.7 14.3 214.3 17.7 257.2 18C300 18.3 343 15.7 385.8 13.5C428.7 11.3 471.3 9.7 514.2 10C557 10.3 600 12.7 642.8 13C685.7 13.3 728.3 11.7 771.2 12.2C814 12.7 857 15.3 878.5 16.7L900 18L900 0L878.5 0C857 0 814 0 771.2 0C728.3 0 685.7 0 642.8 0C600 0 557 0 514.2 0C471.3 0 428.7 0 385.8 0C343 0 300 0 257.2 0C214.3 0 171.7 0 128.8 0C86 0 43 0 21.5 0L0 0Z" fill="#107ca3"></path></svg>