<svg id="visual" viewBox="0 0 900 900" width="900" height="900" xmlns="http://www.w3.org/2000/svg" xmlns:xlink="http://www.w3.org/1999/xlink" version="1.1"><path d="M0 55L6.5 50.5C13 46 26 37 39 40C52 43 65 58 78 58C91 58 104 43 117.2 41.5C130.3 40 143.7 52 156.8 49C170 46 183 28 196 25C209 22 222 34 235 34C248 34 261 22 274 14.3C287 6.7 300 3.3 313 3.3C326 3.3 339 6.7 352 12.8C365 19 378 28 391 34C404 40 417 43 430.2 46C443.3 49 456.7 52 469.8 56.5C483 61 496 67 509 59.5C522 52 535 31 548 18.8C561 6.7 574 3.3 587 6.3C600 9.3 613 18.7 626 29.3C639 40 652 52 665 53.5C678 55 691 46 704 35.3C717 24.7 730 12.3 743.2 12.3C756.3 12.3 769.7 24.7 782.8 29.3C796 34 809 31 822 31C835 31 848 34 861 41.5C874 49 887 61 893.5 67L900 73L900 0L893.5 0C887 0 874 0 861 0C848 0 835 0 822 0C809 0 796 0 782.8 0C769.7 0 756.3 0 743.2 0C730 0 717 0 704 0C691 0 678 0 665 0C652 0 639 0 626 0C613 0 600 0 587 0C574 0 561 0 548 0C535 0 522 0 509 0C496 0 483 0 469.8 0C456.7 0 443.3 0 430.2 0C417 0 404 0 391 0C378 0 365 0 352 0C339 0 326 0 313 0C300 0 287 0 274 0C261 0 248 0 235 0C222 0 209 0 196 0C183 0 170 0 156.8 0C143.7 0 130.3 0 117.2 0C104 0 91 0 78 0C65 0 52 0 39 0C26 0 13 0 6.5 0L0 0Z" fill="#001220"></path><path d="M0 226L6.5 220C13 214 26 202 39 208C52 214 65 238 78 251.5C91 265 104 268 117.2 280C130.3 292 143.7 313 156.8 275.5C170 238 183 142 196 115C209 88 222 130 235 151C248 172 261 172 274 157C287 142 300 112 313 86.5C326 61 339 40 352 67C365 94 378 169 391 190C404 211 417 178 430.2 149.5C443.3 121 456.7 97 469.8 104.5C483 112 496 151 509 155.5C522 160 535 130 548 112C561 94 574 88 587 98.5C600 109 613 136 626 154C639 172 652 181 665 197.5C678 214 691 238 704 253C717 268 730 274 743.2 248.5C756.3 223 769.7 166 782.8 157C796 148 809 187 822 203.5C835 220 848 214 861 212.5C874 211 887 214 893.5 215.5L900 217L900 71L893.5 65C887 59 874 47 861 39.5C848 32 835 29 822 29C809 29 796 32 782.8 27.7C769.7 23.3 756.3 11.7 743.2 11.7C730 11.7 717 23.3 704 33.7C691 44 678 53 665 51.5C652 50 639 38 626 27.7C613 17.3 600 8.7 587 5.7C574 2.7 561 5.3 548 17.2C535 29 522 50 509 57.5C496 65 483 59 469.8 54.5C456.7 50 443.3 47 430.2 44C417 41 404 38 391 32C378 26 365 17 352 11.2C339 5.3 326 2.7 313 2.7C300 2.7 287 5.3 274 12.7C261 20 248 32 235 32C222 32 209 20 196 23C183 26 170 44 156.8 47C143.7 50 130.3 38 117.2 39.5C104 41 91 56 78 56C65 56 52 41 39 38C26 35 13 44 6.5 48.5L0 53Z" fill="#002435"></path><path d="M0 325L6.5 325C13 325 26 325 39 326.5C52 328 65 331 78 346C91 361 104 388 117.2 407.5C130.3 427 143.7 439 156.8 398.5C170 358 183 265 196 238C209 211 222 250 235 259C248 268 261 247 274 239.5C287 232 300 238 313 206.5C326 175 339 106 352 122.5C365 139 378 241 391 272.5C404 304 417 265 430.2 227.5C443.3 190 456.7 154 469.8 166C483 178 496 238 509 256C522 274 535 250 548 217C561 184 574 142 587 143.5C600 145 613 190 626 220C639 250 652 265 665 284.5C678 304 691 328 704 338.5C717 349 730 346 743.2 320.5C756.3 295 769.7 247 782.8 239.5C796 232 809 265 822 283C835 301 848 304 861 308.5C874 313 887 319 893.5 322L900 325L900 215L893.5 213.5C887 212 874 209 861 210.5C848 212 835 218 822 201.5C809 185 796 146 782.8 155C769.7 164 756.3 221 743.2 246.5C730 272 717 266 704 251C691 236 678 212 665 195.5C652 179 639 170 626 152C613 134 600 107 587 96.5C574 86 561 92 548 110C535 128 522 158 509 153.5C496 149 483 110 469.8 102.5C456.7 95 443.3 119 430.2 147.5C417 176 404 209 391 188C378 167 365 92 352 65C339 38 326 59 313 84.5C300 110 287 140 274 155C261 170 248 170 235 149C222 128 209 86 196 113C183 140 170 236 156.8 273.5C143.7 311 130.3 290 117.2 278C104 266 91 263 78 249.5C65 236 52 212 39 206C26 200 13 212 6.5 218L0 224Z" fill="#003849"></path><path d="M0 406L6.5 407.5C13 409 26 412 39 415C52 418 65 421 78 425.5C91 430 104 436 117.2 452.5C130.3 469 143.7 496 156.8 466C170 436 183 349 196 326.5C209 304 222 346 235 359.5C248 373 261 358 274 335.5C287 313 300 283 313 235C326 187 339 121 352 155.5C365 190 378 325 391 374.5C404 424 417 388 430.2 343C443.3 298 456.7 244 469.8 241C483 238 496 286 509 301C522 316 535 298 548 281.5C561 265 574 250 587 242.5C600 235 613 235 626 251.5C639 268 652 301 665 335.5C678 370 691 406 704 421C717 436 730 430 743.2 395.5C756.3 361 769.7 298 782.8 295C796 292 809 349 822 367C835 385 848 364 861 368.5C874 373 887 403 893.5 418L900 433L900 323L893.5 320C887 317 874 311 861 306.5C848 302 835 299 822 281C809 263 796 230 782.8 237.5C769.7 245 756.3 293 743.2 318.5C730 344 717 347 704 336.5C691 326 678 302 665 282.5C652 263 639 248 626 218C613 188 600 143 587 141.5C574 140 561 182 548 215C535 248 522 272 509 254C496 236 483 176 469.8 164C456.7 152 443.3 188 430.2 225.5C417 263 404 302 391 270.5C378 239 365 137 352 120.5C339 104 326 173 313 204.5C300 236 287 230 274 237.5C261 245 248 266 235 257C222 248 209 209 196 236C183 263 170 356 156.8 396.5C143.7 437 130.3 425 117.2 405.5C104 386 91 359 78 344C65 329 52 326 39 324.5C26 323 13 323 6.5 323L0 323Z" fill="#004d59"></path><path d="M0 415L6.5 415C13 415 26 415 39 425.5C52 436 65 457 78 467.5C91 478 104 478 117.2 493C130.3 508 143.7 538 156.8 514C170 490 183 412 196 392.5C209 373 222 412 235 413.5C248 415 261 379 274 358C287 337 300 331 313 293.5C326 256 339 187 352 221.5C365 256 378 394 391 443.5C404 493 417 454 430.2 398.5C443.3 343 456.7 271 469.8 263.5C483 256 496 313 509 332.5C522 352 535 334 548 317.5C561 301 574 286 587 274C600 262 613 253 626 263.5C639 274 652 304 665 346C678 388 691 442 704 464.5C717 487 730 478 743.2 439C756.3 400 769.7 331 782.8 322C796 313 809 364 822 377.5C835 391 848 367 861 370C874 373 887 403 893.5 418L900 433L900 431L893.5 416C887 401 874 371 861 366.5C848 362 835 383 822 365C809 347 796 290 782.8 293C769.7 296 756.3 359 743.2 393.5C730 428 717 434 704 419C691 404 678 368 665 333.5C652 299 639 266 626 249.5C613 233 600 233 587 240.5C574 248 561 263 548 279.5C535 296 522 314 509 299C496 284 483 236 469.8 239C456.7 242 443.3 296 430.2 341C417 386 404 422 391 372.5C378 323 365 188 352 153.5C339 119 326 185 313 233C300 281 287 311 274 333.5C261 356 248 371 235 357.5C222 344 209 302 196 324.5C183 347 170 434 156.8 464C143.7 494 130.3 467 117.2 450.5C104 434 91 428 78 423.5C65 419 52 416 39 413C26 410 13 407 6.5 405.5L0 404Z" fill="#006264"></path><path d="M0 496L6.5 488.5C13 481 26 466 39 470.5C52 475 65 499 78 517C91 535 104 547 117.2 557.5C130.3 568 143.7 577 156.8 542.5C170 508 183 430 196 416.5C209 403 222 454 235 457C248 460 261 415 274 397C287 379 300 388 313 347.5C326 307 339 217 352 250C365 283 378 439 391 497.5C404 556 417 517 430.2 455.5C443.3 394 456.7 310 469.8 304C483 298 496 370 509 389.5C522 409 535 376 548 352C561 328 574 313 587 298C600 283 613 268 626 278.5C639 289 652 325 665 374.5C678 424 691 487 704 509.5C717 532 730 514 743.2 476.5C756.3 439 769.7 382 782.8 382C796 382 809 439 822 443.5C835 448 848 400 861 401.5C874 403 887 454 893.5 479.5L900 505L900 431L893.5 416C887 401 874 371 861 368C848 365 835 389 822 375.5C809 362 796 311 782.8 320C769.7 329 756.3 398 743.2 437C730 476 717 485 704 462.5C691 440 678 386 665 344C652 302 639 272 626 261.5C613 251 600 260 587 272C574 284 561 299 548 315.5C535 332 522 350 509 330.5C496 311 483 254 469.8 261.5C456.7 269 443.3 341 430.2 396.5C417 452 404 491 391 441.5C378 392 365 254 352 219.5C339 185 326 254 313 291.5C300 329 287 335 274 356C261 377 248 413 235 411.5C222 410 209 371 196 390.5C183 410 170 488 156.8 512C143.7 536 130.3 506 117.2 491C104 476 91 476 78 465.5C65 455 52 434 39 423.5C26 413 13 413 6.5 413L0 413Z" fill="#00776a"></path><path d="M0 685L6.5 661C13 637 26 589 39 568C52 547 65 553 78 575.5C91 598 104 637 117.2 658C130.3 679 143.7 682 156.8 644.5C170 607 183 529 196 524.5C209 520 222 589 235 596.5C248 604 261 550 274 521.5C287 493 300 490 313 452.5C326 415 339 343 352 361C365 379 378 487 391 524.5C404 562 417 529 430.2 499C443.3 469 456.7 442 469.8 448C483 454 496 493 509 512.5C522 532 535 532 548 499C561 466 574 400 587 382C600 364 613 394 626 419.5C639 445 652 466 665 493C678 520 691 553 704 581.5C717 610 730 634 743.2 616C756.3 598 769.7 538 782.8 527.5C796 517 809 556 822 569.5C835 583 848 571 861 580C874 589 887 619 893.5 634L900 649L900 503L893.5 477.5C887 452 874 401 861 399.5C848 398 835 446 822 441.5C809 437 796 380 782.8 380C769.7 380 756.3 437 743.2 474.5C730 512 717 530 704 507.5C691 485 678 422 665 372.5C652 323 639 287 626 276.5C613 266 600 281 587 296C574 311 561 326 548 350C535 374 522 407 509 387.5C496 368 483 296 469.8 302C456.7 308 443.3 392 430.2 453.5C417 515 404 554 391 495.5C378 437 365 281 352 248C339 215 326 305 313 345.5C300 386 287 377 274 395C261 413 248 458 235 455C222 452 209 401 196 414.5C183 428 170 506 156.8 540.5C143.7 575 130.3 566 117.2 555.5C104 545 91 533 78 515C65 497 52 473 39 468.5C26 464 13 479 6.5 486.5L0 494Z" fill="#108d6a"></path><path d="M0 712L6.5 700C13 688 26 664 39 650.5C52 637 65 634 78 649C91 664 104 697 117.2 719.5C130.3 742 143.7 754 156.8 719.5C170 685 183 604 196 595C209 586 222 649 235 652C248 655 261 598 274 577C287 556 300 571 313 530.5C326 490 339 394 352 407.5C365 421 378 544 391 577C404 610 417 553 430.2 523C443.3 493 456.7 490 469.8 505C483 520 496 553 509 574C522 595 535 604 548 562C561 520 574 427 587 397C600 367 613 400 626 431.5C639 463 652 493 665 523C678 553 691 583 704 614.5C717 646 730 679 743.2 659.5C756.3 640 769.7 568 782.8 551.5C796 535 809 574 822 593.5C835 613 848 613 861 628C874 643 887 673 893.5 688L900 703L900 647L893.5 632C887 617 874 587 861 578C848 569 835 581 822 567.5C809 554 796 515 782.8 525.5C769.7 536 756.3 596 743.2 614C730 632 717 608 704 579.5C691 551 678 518 665 491C652 464 639 443 626 417.5C613 392 600 362 587 380C574 398 561 464 548 497C535 530 522 530 509 510.5C496 491 483 452 469.8 446C456.7 440 443.3 467 430.2 497C417 527 404 560 391 522.5C378 485 365 377 352 359C339 341 326 413 313 450.5C300 488 287 491 274 519.5C261 548 248 602 235 594.5C222 587 209 518 196 522.5C183 527 170 605 156.8 642.5C143.7 680 130.3 677 117.2 656C104 635 91 596 78 573.5C65 551 52 545 39 566C26 587 13 635 6.5 659L0 683Z" fill="#38a163"></path><path d="M0 793L6.5 779.5C13 766 26 739 39 719.5C52 700 65 688 78 697C91 706 104 736 117.2 761.5C130.3 787 143.7 808 156.8 773.5C170 739 183 649 196 631C209 613 222 667 235 676C248 685 261 649 274 635.5C287 622 300 631 313 583C326 535 339 430 352 437.5C365 445 378 565 391 605.5C404 646 417 607 430.2 589C443.3 571 456.7 574 469.8 592C483 610 496 643 509 665.5C522 688 535 700 548 661C561 622 574 532 587 497.5C600 463 613 484 626 500.5C639 517 652 529 665 556C678 583 691 625 704 661C717 697 730 727 743.2 710.5C756.3 694 769.7 631 782.8 614.5C796 598 809 628 822 641.5C835 655 848 652 861 673C874 694 887 739 893.5 761.5L900 784L900 701L893.5 686C887 671 874 641 861 626C848 611 835 611 822 591.5C809 572 796 533 782.8 549.5C769.7 566 756.3 638 743.2 657.5C730 677 717 644 704 612.5C691 581 678 551 665 521C652 491 639 461 626 429.5C613 398 600 365 587 395C574 425 561 518 548 560C535 602 522 593 509 572C496 551 483 518 469.8 503C456.7 488 443.3 491 430.2 521C417 551 404 608 391 575C378 542 365 419 352 405.5C339 392 326 488 313 528.5C300 569 287 554 274 575C261 596 248 653 235 650C222 647 209 584 196 593C183 602 170 683 156.8 717.5C143.7 752 130.3 740 117.2 717.5C104 695 91 662 78 647C65 632 52 635 39 648.5C26 662 13 686 6.5 698L0 710Z" fill="#62b555"></path><path d="M0 829L6.5 814C13 799 26 769 39 757C52 745 65 751 78 758.5C91 766 104 775 117.2 791.5C130.3 808 143.7 832 156.8 811C170 790 183 724 196 703C209 682 222 706 235 715C248 724 261 718 274 713.5C287 709 300 706 313 661C326 616 339 529 352 535C365 541 378 640 391 670C404 700 417 661 430.2 647.5C443.3 634 456.7 646 469.8 661C483 676 496 694 509 704.5C522 715 535 718 548 680.5C561 643 574 565 587 535C600 505 613 523 626 547C639 571 652 601 665 637C678 673 691 715 704 746.5C717 778 730 799 743.2 787C756.3 775 769.7 730 782.8 724C796 718 809 751 822 766C835 781 848 778 861 784C874 790 887 805 893.5 812.5L900 820L900 782L893.5 759.5C887 737 874 692 861 671C848 650 835 653 822 639.5C809 626 796 596 782.8 612.5C769.7 629 756.3 692 743.2 708.5C730 725 717 695 704 659C691 623 678 581 665 554C652 527 639 515 626 498.5C613 482 600 461 587 495.5C574 530 561 620 548 659C535 698 522 686 509 663.5C496 641 483 608 469.8 590C456.7 572 443.3 569 430.2 587C417 605 404 644 391 603.5C378 563 365 443 352 435.5C339 428 326 533 313 581C300 629 287 620 274 633.5C261 647 248 683 235 674C222 665 209 611 196 629C183 647 170 737 156.8 771.5C143.7 806 130.3 785 117.2 759.5C104 734 91 704 78 695C65 686 52 698 39 717.5C26 737 13 764 6.5 777.5L0 791Z" fill="#90c641"></path><path d="M0 865L6.5 853C13 841 26 817 39 805C52 793 65 793 78 800.5C91 808 104 823 117.2 839.5C130.3 856 143.7 874 156.8 850C170 826 183 760 196 742C209 724 222 754 235 769C248 784 261 784 274 770.5C287 757 300 730 313 679C326 628 339 553 352 565C365 577 378 676 391 701.5C404 727 417 679 430.2 665.5C443.3 652 456.7 673 469.8 697C483 721 496 748 509 752.5C522 757 535 739 548 703C561 667 574 613 587 587.5C600 562 613 565 626 587.5C639 610 652 652 665 691C678 730 691 766 704 793C717 820 730 838 743.2 823C756.3 808 769.7 760 782.8 755.5C796 751 809 790 822 808C835 826 848 823 861 823C874 823 887 826 893.5 827.5L900 829L900 818L893.5 810.5C887 803 874 788 861 782C848 776 835 779 822 764C809 749 796 716 782.8 722C769.7 728 756.3 773 743.2 785C730 797 717 776 704 744.5C691 713 678 671 665 635C652 599 639 569 626 545C613 521 600 503 587 533C574 563 561 641 548 678.5C535 716 522 713 509 702.5C496 692 483 674 469.8 659C456.7 644 443.3 632 430.2 645.5C417 659 404 698 391 668C378 638 365 539 352 533C339 527 326 614 313 659C300 704 287 707 274 711.5C261 716 248 722 235 713C222 704 209 680 196 701C183 722 170 788 156.8 809C143.7 830 130.3 806 117.2 789.5C104 773 91 764 78 756.5C65 749 52 743 39 755C26 767 13 797 6.5 812L0 827Z" fill="#c5d427"></path><path d="M0 901L6.5 901C13 901 26 901 39 901C52 901 65 901 78 901C91 901 104 901 117.2 901C130.3 901 143.7 901 156.8 901C170 901 183 901 196 901C209 901 222 901 235 901C248 901 261 901 274 901C287 901 300 901 313 901C326 901 339 901 352 901C365 901 378 901 391 901C404 901 417 901 430.2 901C443.3 901 456.7 901 469.8 901C483 901 496 901 509 901C522 901 535 901 548 901C561 901 574 901 587 901C600 901 613 901 626 901C639 901 652 901 665 901C678 901 691 901 704 901C717 901 730 901 743.2 901C756.3 901 769.7 901 782.8 901C796 901 809 901 822 901C835 901 848 901 861 901C874 901 887 901 893.5 901L900 901L900 827L893.5 825.5C887 824 874 821 861 821C848 821 835 824 822 806C809 788 796 749 782.8 753.5C769.7 758 756.3 806 743.2 821C730 836 717 818 704 791C691 764 678 728 665 689C652 650 639 608 626 585.5C613 563 600 560 587 585.5C574 611 561 665 548 701C535 737 522 755 509 750.5C496 746 483 719 469.8 695C456.7 671 443.3 650 430.2 663.5C417 677 404 725 391 699.5C378 674 365 575 352 563C339 551 326 626 313 677C300 728 287 755 274 768.5C261 782 248 782 235 767C222 752 209 722 196 740C183 758 170 824 156.8 848C143.7 872 130.3 854 117.2 837.5C104 821 91 806 78 798.5C65 791 52 791 39 803C26 815 13 839 6.5 851L0 863Z" fill="#ffde00"></path></svg>