<svg id="visual" viewBox="0 0 900 300" width="900" height="300" xmlns="http://www.w3.org/2000/svg" xmlns:xlink="http://www.w3.org/1999/xlink" version="1.1"><path d="M0 10L39 25L78 19L117 19L157 0L196 31L235 4L274 16L313 19L352 10L391 34L430 19L470 19L509 34L548 25L587 40L626 16L665 25L704 13L743 0L783 10L822 19L861 10L900 22L900 0L861 0L822 0L783 0L743 0L704 0L665 0L626 0L587 0L548 0L509 0L470 0L430 0L391 0L352 0L313 0L274 0L235 0L196 0L157 0L117 0L78 0L39 0L0 0Z" fill="#001220"></path><path d="M0 70L39 49L78 67L117 40L157 64L196 43L235 55L274 43L313 58L352 79L391 43L430 49L470 49L509 37L548 58L587 82L626 34L665 73L704 16L743 22L783 46L822 58L861 31L900 58L900 20L861 8L822 17L783 8L743 0L704 11L665 23L626 14L587 38L548 23L509 32L470 17L430 17L391 32L352 8L313 17L274 14L235 2L196 29L157 0L117 17L78 17L39 23L0 8Z" fill="#111e35"></path><path d="M0 82L39 73L78 73L117 52L157 82L196 58L235 82L274 49L313 67L352 85L391 58L430 76L470 76L509 52L548 88L587 88L626 34L665 100L704 40L743 49L783 55L822 82L861 43L900 88L900 56L861 29L822 56L783 44L743 20L704 14L665 71L626 32L587 80L548 56L509 35L470 47L430 47L391 41L352 77L313 56L274 41L235 53L196 41L157 62L117 38L78 65L39 47L0 68Z" fill="#282949"></path><path d="M0 94L39 82L78 73L117 73L157 94L196 64L235 97L274 55L313 82L352 103L391 79L430 91L470 76L509 67L548 103L587 88L626 40L665 103L704 58L743 58L783 76L822 85L861 58L900 91L900 86L861 41L822 80L783 53L743 47L704 38L665 98L626 32L587 86L548 86L509 50L470 74L430 74L391 56L352 83L313 65L274 47L235 80L196 56L157 80L117 50L78 71L39 71L0 80Z" fill="#45325a"></path><path d="M0 100L39 109L78 100L117 91L157 106L196 82L235 124L274 70L313 85L352 118L391 100L430 115L470 103L509 91L548 106L587 100L626 61L665 115L704 85L743 67L783 94L822 109L861 61L900 91L900 89L861 56L822 83L783 74L743 56L704 56L665 101L626 38L587 86L548 101L509 65L470 74L430 89L391 77L352 101L313 80L274 53L235 95L196 62L157 92L117 71L78 71L39 80L0 92Z" fill="#653a66"></path><path d="M0 100L39 118L78 118L117 112L157 112L196 97L235 127L274 82L313 88L352 133L391 100L430 133L470 121L509 97L548 106L587 103L626 64L665 121L704 85L743 85L783 118L822 127L861 61L900 109L900 89L861 59L822 107L783 92L743 65L704 83L665 113L626 59L587 98L548 104L509 89L470 101L430 113L391 98L352 116L313 83L274 68L235 122L196 80L157 104L117 89L78 98L39 107L0 98Z" fill="#86406d"></path><path d="M0 103L39 130L78 118L117 118L157 112L196 103L235 145L274 100L313 112L352 163L391 100L430 154L470 127L509 112L548 124L587 121L626 82L665 127L704 106L743 109L783 142L822 157L861 82L900 127L900 107L861 59L822 125L783 116L743 83L704 83L665 119L626 62L587 101L548 104L509 95L470 119L430 131L391 98L352 131L313 86L274 80L235 125L196 95L157 110L117 110L78 116L39 116L0 98Z" fill="#a7486e"></path><path d="M0 118L39 139L78 157L117 136L157 115L196 124L235 178L274 136L313 118L352 166L391 118L430 169L470 163L509 124L548 154L587 172L626 88L665 148L704 139L743 148L783 184L822 178L861 139L900 175L900 125L861 80L822 155L783 140L743 107L704 104L665 125L626 80L587 119L548 122L509 110L470 125L430 152L391 98L352 161L313 110L274 98L235 143L196 101L157 110L117 116L78 116L39 128L0 101Z" fill="#c55469"></path><path d="M0 136L39 142L78 187L117 151L157 160L196 136L235 184L274 145L313 136L352 196L391 130L430 196L470 187L509 142L548 178L587 178L626 94L665 148L704 148L743 148L783 196L822 199L861 148L900 208L900 173L861 137L822 176L783 182L743 146L704 137L665 146L626 86L587 170L548 152L509 122L470 161L430 167L391 116L352 164L313 116L274 134L235 176L196 122L157 113L117 134L78 155L39 137L0 116Z" fill="#dd6461"></path><path d="M0 226L39 226L78 220L117 256L157 256L196 169L235 229L274 181L313 208L352 247L391 154L430 247L470 205L509 241L548 184L587 220L626 250L665 238L704 214L743 175L783 265L822 205L861 181L900 268L900 206L861 146L822 197L783 194L743 146L704 146L665 146L626 92L587 176L548 176L509 140L470 185L430 194L391 128L352 194L313 134L274 143L235 182L196 134L157 158L117 149L78 185L39 140L0 134Z" fill="#ef7955"></path><path d="M0 301L39 259L78 274L117 295L157 256L196 262L235 289L274 268L313 289L352 298L391 298L430 271L470 277L509 283L548 280L587 271L626 292L665 286L704 262L743 265L783 295L822 271L861 292L900 292L900 266L861 179L822 203L783 263L743 173L704 212L665 236L626 248L587 218L548 182L509 239L470 203L430 245L391 152L352 245L313 206L274 179L235 227L196 167L157 254L117 254L78 218L39 224L0 224Z" fill="#fa9348"></path><path d="M0 301L39 301L78 301L117 301L157 301L196 301L235 301L274 301L313 301L352 301L391 301L430 301L470 301L509 301L548 301L587 301L626 301L665 301L704 301L743 301L783 301L822 301L861 301L900 301L900 290L861 290L822 269L783 293L743 263L704 260L665 284L626 290L587 269L548 278L509 281L470 275L430 269L391 296L352 296L313 287L274 266L235 287L196 260L157 254L117 293L78 272L39 257L0 299Z" fill="#fcaf3c"></path></svg>