<svg id="visual" viewBox="0 0 900 100" width="900" height="100" xmlns="http://www.w3.org/2000/svg" xmlns:xlink="http://www.w3.org/1999/xlink" version="1.1"><rect x="0" y="0" width="900" height="100" fill="#ffffff"></rect><path d="M0 72L21.5 70.5C43 69 86 66 128.8 63.7C171.7 61.3 214.3 59.7 257.2 59.5C300 59.3 343 60.7 385.8 62.5C428.7 64.3 471.3 66.7 514.2 67.7C557 68.7 600 68.3 642.8 67.3C685.7 66.3 728.3 64.7 771.2 64.7C814 64.7 857 66.3 878.5 67.2L900 68L900 101L878.5 101C857 101 814 101 771.2 101C728.3 101 685.7 101 642.8 101C600 101 557 101 514.2 101C471.3 101 428.7 101 385.8 101C343 101 300 101 257.2 101C214.3 101 171.7 101 128.8 101C86 101 43 101 21.5 101L0 101Z" fill="#ffffff"></path><path d="M0 67L21.5 68.5C43 70 86 73 128.8 74.5C171.7 76 214.3 76 257.2 76.2C300 76.3 343 76.7 385.8 75.2C428.7 73.7 471.3 70.3 514.2 68.3C557 66.3 600 65.7 642.8 66.5C685.7 67.3 728.3 69.7 771.2 70.7C814 71.7 857 71.3 878.5 71.2L900 71L900 101L878.5 101C857 101 814 101 771.2 101C728.3 101 685.7 101 642.8 101C600 101 557 101 514.2 101C471.3 101 428.7 101 385.8 101C343 101 300 101 257.2 101C214.3 101 171.7 101 128.8 101C86 101 43 101 21.5 101L0 101Z" fill="#ffd0d6"></path><path d="M0 74L21.5 75.5C43 77 86 80 128.8 80C171.7 80 214.3 77 257.2 76.3C300 75.7 343 77.3 385.8 77C428.7 76.7 471.3 74.3 514.2 73.7C557 73 600 74 642.8 75.3C685.7 76.7 728.3 78.3 771.2 79.3C814 80.3 857 80.7 878.5 80.8L900 81L900 101L878.5 101C857 101 814 101 771.2 101C728.3 101 685.7 101 642.8 101C600 101 557 101 514.2 101C471.3 101 428.7 101 385.8 101C343 101 300 101 257.2 101C214.3 101 171.7 101 128.8 101C86 101 43 101 21.5 101L0 101Z" fill="#ffa0af"></path><path d="M0 84L21.5 84.8C43 85.7 86 87.3 128.8 87C171.7 86.7 214.3 84.3 257.2 84.2C300 84 343 86 385.8 85.7C428.7 85.3 471.3 82.7 514.2 82C557 81.3 600 82.7 642.8 83.5C685.7 84.3 728.3 84.7 771.2 85.3C814 86 857 87 878.5 87.5L900 88L900 101L878.5 101C857 101 814 101 771.2 101C728.3 101 685.7 101 642.8 101C600 101 557 101 514.2 101C471.3 101 428.7 101 385.8 101C343 101 300 101 257.2 101C214.3 101 171.7 101 128.8 101C86 101 43 101 21.5 101L0 101Z" fill="#ff6a8a"></path><path d="M0 87L21.5 87.3C43 87.7 86 88.3 128.8 89.3C171.7 90.3 214.3 91.7 257.2 92.5C300 93.3 343 93.7 385.8 93.5C428.7 93.3 471.3 92.7 514.2 92.3C557 92 600 92 642.8 91.2C685.7 90.3 728.3 88.7 771.2 88.3C814 88 857 89 878.5 89.5L900 90L900 101L878.5 101C857 101 814 101 771.2 101C728.3 101 685.7 101 642.8 101C600 101 557 101 514.2 101C471.3 101 428.7 101 385.8 101C343 101 300 101 257.2 101C214.3 101 171.7 101 128.8 101C86 101 43 101 21.5 101L0 101Z" fill="#ff0066"></path></svg>