<svg id="visual" viewBox="0 0 900 200" width="900" height="200" xmlns="http://www.w3.org/2000/svg" xmlns:xlink="http://www.w3.org/1999/xlink" version="1.1"><path d="M0 25L13.7 23.7C27.3 22.3 54.7 19.7 82 18.3C109.3 17 136.7 17 163.8 20C191 23 218 29 245.2 29.7C272.3 30.3 299.7 25.7 327 25C354.3 24.3 381.7 27.7 409 32C436.3 36.3 463.7 41.7 491 43C518.3 44.3 545.7 41.7 573 41.3C600.3 41 627.7 43 654.8 44C682 45 709 45 736.2 41.3C763.3 37.7 790.7 30.3 818 27.3C845.3 24.3 872.7 25.7 886.3 26.3L900 27L900 0L886.3 0C872.7 0 845.3 0 818 0C790.7 0 763.3 0 736.2 0C709 0 682 0 654.8 0C627.7 0 600.3 0 573 0C545.7 0 518.3 0 491 0C463.7 0 436.3 0 409 0C381.7 0 354.3 0 327 0C299.7 0 272.3 0 245.2 0C218 0 191 0 163.8 0C136.7 0 109.3 0 82 0C54.7 0 27.3 0 13.7 0L0 0Z" fill="#ff0066"></path><path d="M0 55L13.7 58.3C27.3 61.7 54.7 68.3 82 71C109.3 73.7 136.7 72.3 163.8 72.3C191 72.3 218 73.7 245.2 70.7C272.3 67.7 299.7 60.3 327 58.7C354.3 57 381.7 61 409 66C436.3 71 463.7 77 491 78.7C518.3 80.3 545.7 77.7 573 79C600.3 80.3 627.7 85.7 654.8 88C682 90.3 709 89.7 736.2 83.7C763.3 77.7 790.7 66.3 818 65.3C845.3 64.3 872.7 73.7 886.3 78.3L900 83L900 25L886.3 24.3C872.7 23.7 845.3 22.3 818 25.3C790.7 28.3 763.3 35.7 736.2 39.3C709 43 682 43 654.8 42C627.7 41 600.3 39 573 39.3C545.7 39.7 518.3 42.3 491 41C463.7 39.7 436.3 34.3 409 30C381.7 25.7 354.3 22.3 327 23C299.7 23.7 272.3 28.3 245.2 27.7C218 27 191 21 163.8 18C136.7 15 109.3 15 82 16.3C54.7 17.7 27.3 20.3 13.7 21.7L0 23Z" fill="#d0137b"></path><path d="M0 131L13.7 129.7C27.3 128.3 54.7 125.7 82 123.7C109.3 121.7 136.7 120.3 163.8 119.3C191 118.3 218 117.7 245.2 117C272.3 116.3 299.7 115.7 327 117C354.3 118.3 381.7 121.7 409 124.7C436.3 127.7 463.7 130.3 491 130C518.3 129.7 545.7 126.3 573 126.7C600.3 127 627.7 131 654.8 132C682 133 709 131 736.2 127.3C763.3 123.7 790.7 118.3 818 117.7C845.3 117 872.7 121 886.3 123L900 125L900 81L886.3 76.3C872.7 71.7 845.3 62.3 818 63.3C790.7 64.3 763.3 75.7 736.2 81.7C709 87.7 682 88.3 654.8 86C627.7 83.7 600.3 78.3 573 77C545.7 75.7 518.3 78.3 491 76.7C463.7 75 436.3 69 409 64C381.7 59 354.3 55 327 56.7C299.7 58.3 272.3 65.7 245.2 68.7C218 71.7 191 70.3 163.8 70.3C136.7 70.3 109.3 71.7 82 69C54.7 66.3 27.3 59.7 13.7 56.3L0 53Z" fill="#992981"></path><path d="M0 141L13.7 142.3C27.3 143.7 54.7 146.3 82 147.7C109.3 149 136.7 149 163.8 148.7C191 148.3 218 147.7 245.2 147C272.3 146.3 299.7 145.7 327 146.3C354.3 147 381.7 149 409 148.7C436.3 148.3 463.7 145.7 491 145.7C518.3 145.7 545.7 148.3 573 152C600.3 155.7 627.7 160.3 654.8 160.3C682 160.3 709 155.7 736.2 152.3C763.3 149 790.7 147 818 144.3C845.3 141.7 872.7 138.3 886.3 136.7L900 135L900 123L886.3 121C872.7 119 845.3 115 818 115.7C790.7 116.3 763.3 121.7 736.2 125.3C709 129 682 131 654.8 130C627.7 129 600.3 125 573 124.7C545.7 124.3 518.3 127.7 491 128C463.7 128.3 436.3 125.7 409 122.7C381.7 119.7 354.3 116.3 327 115C299.7 113.7 272.3 114.3 245.2 115C218 115.7 191 116.3 163.8 117.3C136.7 118.3 109.3 119.7 82 121.7C54.7 123.7 27.3 126.3 13.7 127.7L0 129Z" fill="#623078"></path><path d="M0 151L13.7 153.3C27.3 155.7 54.7 160.3 82 163.3C109.3 166.3 136.7 167.7 163.8 166C191 164.3 218 159.7 245.2 157.7C272.3 155.7 299.7 156.3 327 157.3C354.3 158.3 381.7 159.7 409 160C436.3 160.3 463.7 159.7 491 161.7C518.3 163.7 545.7 168.3 573 171C600.3 173.7 627.7 174.3 654.8 172.7C682 171 709 167 736.2 165.3C763.3 163.7 790.7 164.3 818 162C845.3 159.7 872.7 154.3 886.3 151.7L900 149L900 133L886.3 134.7C872.7 136.3 845.3 139.7 818 142.3C790.7 145 763.3 147 736.2 150.3C709 153.7 682 158.3 654.8 158.3C627.7 158.3 600.3 153.7 573 150C545.7 146.3 518.3 143.7 491 143.7C463.7 143.7 436.3 146.3 409 146.7C381.7 147 354.3 145 327 144.3C299.7 143.7 272.3 144.3 245.2 145C218 145.7 191 146.3 163.8 146.7C136.7 147 109.3 147 82 145.7C54.7 144.3 27.3 141.7 13.7 140.3L0 139Z" fill="#312c61"></path><path d="M0 175L13.7 177.3C27.3 179.7 54.7 184.3 82 187C109.3 189.7 136.7 190.3 163.8 188.3C191 186.3 218 181.7 245.2 179.3C272.3 177 299.7 177 327 178C354.3 179 381.7 181 409 180C436.3 179 463.7 175 491 174.7C518.3 174.3 545.7 177.7 573 179.7C600.3 181.7 627.7 182.3 654.8 181C682 179.7 709 176.3 736.2 175C763.3 173.7 790.7 174.3 818 174.3C845.3 174.3 872.7 173.7 886.3 173.3L900 173L900 147L886.3 149.7C872.7 152.3 845.3 157.7 818 160C790.7 162.3 763.3 161.7 736.2 163.3C709 165 682 169 654.8 170.7C627.7 172.3 600.3 171.7 573 169C545.7 166.3 518.3 161.7 491 159.7C463.7 157.7 436.3 158.3 409 158C381.7 157.7 354.3 156.3 327 155.3C299.7 154.3 272.3 153.7 245.2 155.7C218 157.7 191 162.3 163.8 164C136.7 165.7 109.3 164.3 82 161.3C54.7 158.3 27.3 153.7 13.7 151.3L0 149Z" fill="#0b2242"></path><path d="M0 201L13.7 201C27.3 201 54.7 201 82 201C109.3 201 136.7 201 163.8 201C191 201 218 201 245.2 201C272.3 201 299.7 201 327 201C354.3 201 381.7 201 409 201C436.3 201 463.7 201 491 201C518.3 201 545.7 201 573 201C600.3 201 627.7 201 654.8 201C682 201 709 201 736.2 201C763.3 201 790.7 201 818 201C845.3 201 872.7 201 886.3 201L900 201L900 171L886.3 171.3C872.7 171.7 845.3 172.3 818 172.3C790.7 172.3 763.3 171.7 736.2 173C709 174.3 682 177.7 654.8 179C627.7 180.3 600.3 179.7 573 177.7C545.7 175.7 518.3 172.3 491 172.7C463.7 173 436.3 177 409 178C381.7 179 354.3 177 327 176C299.7 175 272.3 175 245.2 177.3C218 179.7 191 184.3 163.8 186.3C136.7 188.3 109.3 187.7 82 185C54.7 182.3 27.3 177.7 13.7 175.3L0 173Z" fill="#001220"></path></svg>