<svg id="visual" viewBox="0 0 900 300" width="900" height="300" xmlns="http://www.w3.org/2000/svg" xmlns:xlink="http://www.w3.org/1999/xlink" version="1.1"><rect x="0" y="0" width="900" height="300" fill="#D91E85"></rect><path d="M0 99L21.5 98.2C43 97.3 86 95.7 128.8 99.8C171.7 104 214.3 114 257.2 118.2C300 122.3 343 120.7 385.8 115.3C428.7 110 471.3 101 514.2 94C557 87 600 82 642.8 81.2C685.7 80.3 728.3 83.7 771.2 87.7C814 91.7 857 96.3 878.5 98.7L900 101L900 0L878.5 0C857 0 814 0 771.2 0C728.3 0 685.7 0 642.8 0C600 0 557 0 514.2 0C471.3 0 428.7 0 385.8 0C343 0 300 0 257.2 0C214.3 0 171.7 0 128.8 0C86 0 43 0 21.5 0L0 0Z" fill="#d91e85"></path><path d="M0 75L21.5 73C43 71 86 67 128.8 71.2C171.7 75.3 214.3 87.7 257.2 89.7C300 91.7 343 83.3 385.8 77.8C428.7 72.3 471.3 69.7 514.2 73.7C557 77.7 600 88.3 642.8 91.7C685.7 95 728.3 91 771.2 86.5C814 82 857 77 878.5 74.5L900 72L900 0L878.5 0C857 0 814 0 771.2 0C728.3 0 685.7 0 642.8 0C600 0 557 0 514.2 0C471.3 0 428.7 0 385.8 0C343 0 300 0 257.2 0C214.3 0 171.7 0 128.8 0C86 0 43 0 21.5 0L0 0Z" fill="#d70b6d"></path><path d="M0 74L21.5 69C43 64 86 54 128.8 51.2C171.7 48.3 214.3 52.7 257.2 53C300 53.3 343 49.7 385.8 51.2C428.7 52.7 471.3 59.3 514.2 62.3C557 65.3 600 64.7 642.8 63.2C685.7 61.7 728.3 59.3 771.2 58.5C814 57.7 857 58.3 878.5 58.7L900 59L900 0L878.5 0C857 0 814 0 771.2 0C728.3 0 685.7 0 642.8 0C600 0 557 0 514.2 0C471.3 0 428.7 0 385.8 0C343 0 300 0 257.2 0C214.3 0 171.7 0 128.8 0C86 0 43 0 21.5 0L0 0Z" fill="#d20056"></path><path d="M0 48L21.5 48C43 48 86 48 128.8 47.5C171.7 47 214.3 46 257.2 44C300 42 343 39 385.8 36.3C428.7 33.7 471.3 31.3 514.2 33.2C557 35 600 41 642.8 41.2C685.7 41.3 728.3 35.7 771.2 35.5C814 35.3 857 40.7 878.5 43.3L900 46L900 0L878.5 0C857 0 814 0 771.2 0C728.3 0 685.7 0 642.8 0C600 0 557 0 514.2 0C471.3 0 428.7 0 385.8 0C343 0 300 0 257.2 0C214.3 0 171.7 0 128.8 0C86 0 43 0 21.5 0L0 0Z" fill="#ca0040"></path><path d="M0 24L21.5 22.5C43 21 86 18 128.8 16.2C171.7 14.3 214.3 13.7 257.2 17.2C300 20.7 343 28.3 385.8 30.5C428.7 32.7 471.3 29.3 514.2 27.2C557 25 600 24 642.8 22C685.7 20 728.3 17 771.2 17.2C814 17.3 857 20.7 878.5 22.3L900 24L900 0L878.5 0C857 0 814 0 771.2 0C728.3 0 685.7 0 642.8 0C600 0 557 0 514.2 0C471.3 0 428.7 0 385.8 0C343 0 300 0 257.2 0C214.3 0 171.7 0 128.8 0C86 0 43 0 21.5 0L0 0Z" fill="#bf0a2b"></path></svg>