<svg id="visual" viewBox="0 0 900 300" width="900" height="300" xmlns="http://www.w3.org/2000/svg" xmlns:xlink="http://www.w3.org/1999/xlink" version="1.1"><path d="M0 43L39 4L78 37L117 0L157 49L196 7L235 7L274 31L313 40L352 25L391 16L430 37L470 34L509 31L548 28L587 10L626 16L665 7L704 16L743 25L783 13L822 37L861 28L900 43L900 0L861 0L822 0L783 0L743 0L704 0L665 0L626 0L587 0L548 0L509 0L470 0L430 0L391 0L352 0L313 0L274 0L235 0L196 0L157 0L117 0L78 0L39 0L0 0Z" fill="#fcaf3c"></path><path d="M0 46L39 25L78 61L117 10L157 64L196 25L235 7L274 43L313 40L352 43L391 34L430 40L470 58L509 52L548 58L587 25L626 43L665 13L704 28L743 34L783 22L822 52L861 40L900 46L900 41L861 26L822 35L783 11L743 23L704 14L665 5L626 14L587 8L548 26L509 29L470 32L430 35L391 14L352 23L313 38L274 29L235 5L196 5L157 47L117 0L78 35L39 2L0 41Z" fill="#fa9348"></path><path d="M0 58L39 52L78 64L117 13L157 82L196 49L235 19L274 55L313 46L352 52L391 52L430 55L470 73L509 76L548 67L587 49L626 43L665 37L704 40L743 55L783 37L822 67L861 61L900 64L900 44L861 38L822 50L783 20L743 32L704 26L665 11L626 41L587 23L548 56L509 50L470 56L430 38L391 32L352 41L313 38L274 41L235 5L196 23L157 62L117 8L78 59L39 23L0 44Z" fill="#ef7955"></path><path d="M0 130L39 73L78 97L117 94L157 94L196 118L235 73L274 97L313 127L352 88L391 100L430 94L470 115L509 109L548 124L587 55L626 58L665 46L704 43L743 145L783 136L822 112L861 67L900 163L900 62L861 59L822 65L783 35L743 53L704 38L665 35L626 41L587 47L548 65L509 74L470 71L430 53L391 50L352 50L313 44L274 53L235 17L196 47L157 80L117 11L78 62L39 50L0 56Z" fill="#dd6461"></path><path d="M0 148L39 103L78 100L117 136L157 118L196 118L235 130L274 145L313 172L352 133L391 124L430 136L470 115L509 133L548 148L587 64L626 88L665 91L704 58L743 148L783 187L822 127L861 112L900 187L900 161L861 65L822 110L783 134L743 143L704 41L665 44L626 56L587 53L548 122L509 107L470 113L430 92L391 98L352 86L313 125L274 95L235 71L196 116L157 92L117 92L78 95L39 71L0 128Z" fill="#c55469"></path><path d="M0 181L39 109L78 136L117 154L157 121L196 148L235 133L274 148L313 175L352 151L391 151L430 145L470 139L509 166L548 148L587 67L626 121L665 112L704 91L743 160L783 214L822 154L861 157L900 199L900 185L861 110L822 125L783 185L743 146L704 56L665 89L626 86L587 62L548 146L509 131L470 113L430 134L391 122L352 131L313 170L274 143L235 128L196 116L157 116L117 134L78 98L39 101L0 146Z" fill="#a7486e"></path><path d="M0 190L39 130L78 166L117 181L157 124L196 151L235 166L274 151L313 175L352 166L391 184L430 175L470 160L509 193L548 157L587 82L626 145L665 133L704 118L743 184L783 250L822 181L861 163L900 223L900 197L861 155L822 152L783 212L743 158L704 89L665 110L626 119L587 65L548 146L509 164L470 137L430 143L391 149L352 149L313 173L274 146L235 131L196 146L157 119L117 152L78 134L39 107L0 179Z" fill="#86406d"></path><path d="M0 193L39 133L78 169L117 181L157 148L196 154L235 178L274 175L313 175L352 187L391 193L430 193L470 178L509 202L548 169L587 97L626 175L665 142L704 145L743 214L783 265L822 187L861 172L900 229L900 221L861 161L822 179L783 248L743 182L704 116L665 131L626 143L587 80L548 155L509 191L470 158L430 173L391 182L352 164L313 173L274 149L235 164L196 149L157 122L117 179L78 164L39 128L0 188Z" fill="#653a66"></path><path d="M0 232L39 151L78 172L117 208L157 190L196 202L235 235L274 187L313 229L352 193L391 208L430 211L470 229L509 214L548 235L587 145L626 220L665 163L704 163L743 268L783 277L822 196L861 196L900 280L900 227L861 170L822 185L783 263L743 212L704 143L665 140L626 173L587 95L548 167L509 200L470 176L430 191L391 191L352 185L313 173L274 173L235 176L196 152L157 146L117 179L78 167L39 131L0 191Z" fill="#45325a"></path><path d="M0 259L39 151L78 196L117 235L157 208L196 223L235 244L274 208L313 238L352 193L391 223L430 226L470 232L509 238L548 250L587 166L626 229L665 184L704 184L743 268L783 289L822 199L861 205L900 289L900 278L861 194L822 194L783 275L743 266L704 161L665 161L626 218L587 143L548 233L509 212L470 227L430 209L391 206L352 191L313 227L274 185L235 233L196 200L157 188L117 206L78 170L39 149L0 230Z" fill="#282949"></path><path d="M0 283L39 301L78 286L117 286L157 289L196 292L235 301L274 289L313 292L352 295L391 277L430 280L470 286L509 286L548 289L587 283L626 280L665 280L704 292L743 283L783 292L822 277L861 301L900 295L900 287L861 203L822 197L783 287L743 266L704 182L665 182L626 227L587 164L548 248L509 236L470 230L430 224L391 221L352 191L313 236L274 206L235 242L196 221L157 206L117 233L78 194L39 149L0 257Z" fill="#111e35"></path><path d="M0 301L39 301L78 301L117 301L157 301L196 301L235 301L274 301L313 301L352 301L391 301L430 301L470 301L509 301L548 301L587 301L626 301L665 301L704 301L743 301L783 301L822 301L861 301L900 301L900 293L861 299L822 275L783 290L743 281L704 290L665 278L626 278L587 281L548 287L509 284L470 284L430 278L391 275L352 293L313 290L274 287L235 299L196 290L157 287L117 284L78 284L39 299L0 281Z" fill="#001220"></path></svg>